<?xml version="1.0" encoding="UTF-8"?>
<svg width="14px" height="9px" viewBox="0 0 14 9" version="1.1" xmlns="http://www.w3.org/2000/svg" xmlns:xlink="http://www.w3.org/1999/xlink">
    <!-- Generator: Sketch 52.3 (67297) - http://www.bohemiancoding.com/sketch -->
    <title>behance</title>
    <desc>Created with Sketch.</desc>
    <g id="Page-1" stroke="none" stroke-width="1" fill="none" fill-rule="evenodd">
        <g id="1440px" transform="translate(-901.000000, -86.000000)" fill="#FFFFFF">
            <g id="Content-#12" transform="translate(0.000000, -780.000000)">
                <g id="Content" transform="translate(133.000000, 858.000000)">
                    <g id="Header-Copy" transform="translate(696.000000, 0.000000)">
                        <g id="Social-Media">
                            <g id="Facebook">
                                <g id="Group-3" transform="translate(66.000000, 0.000000)">
                                    <g id="behance" transform="translate(6.000000, 8.000000)">
                                        <path d="M5.99004518,3.82229391 C6.23502639,3.42475654 6.3749142,2.9504862 6.36682535,2.44200144 C6.34515215,1.08131064 5.25896075,0 3.95356752,0 L0.309105461,0 C0.138405891,9.14799727e-16 0,0.14429277 0,0.32225278 L0,8.67774722 C0,8.85570723 0.138405891,9 0.309105461,9 L4.38011576,9 C5.89109562,9 7.1427381,7.73744631 7.1489128,6.16219928 C7.15271024,5.19679278 6.69349783,4.34088528 5.99004518,3.82229391 Z M1.59884583,1.66685025 L3.984688,1.66685025 C4.4167626,1.66685025 4.76831912,2.03332749 4.76831912,2.4838119 C4.76831912,2.93426412 4.41679348,3.30077355 3.984688,3.30077355 L1.59884583,3.30077355 L1.59884583,1.66685025 Z M4.41562028,7.33314975 L1.59884583,7.33314975 L1.59884583,4.9676238 L3.984688,4.9676238 L4.41558941,4.9676238 C5.04114822,4.9676238 5.55009784,5.49822079 5.55009784,6.15038678 C5.55009784,6.80255276 5.0411791,7.33314975 4.41562028,7.33314975 Z" id="Shape" fill-rule="nonzero"></path>
                                        <path d="M14,5.58619133 C14,3.70380706 12.5301397,2.17241379 10.7234043,2.17241379 C8.91666882,2.17241379 7.44680851,3.7038382 7.44680851,5.58619133 C7.44680851,7.46854445 8.91669967,9 10.7234043,9 C11.8197062,9 12.838384,8.43273427 13.4483936,7.48252679 C13.5244443,7.36406616 13.5935223,7.24028041 13.6548256,7.11269544 C13.6993145,7.0200819 13.6318099,6.91230266 13.5298125,6.91205353 L11.9191428,6.90800519 C11.8835085,6.90791177 11.8497254,6.92261035 11.8241797,6.94767891 C11.5200388,7.24616607 11.1471592,7.38726626 10.7234043,7.38726626 C9.92294404,7.38726626 9.25193963,6.78297379 9.08490584,5.97738545 L13.6793531,5.97738545 C13.8564447,5.97738545 14,5.83248605 14,5.65373631 L14,5.58619133 Z M10.7234043,3.78511639 C11.3096577,3.78511639 11.8263703,4.10938836 12.1267472,4.59929967 L9.32009213,4.59929967 C9.62043826,4.10938836 10.1371817,3.78511639 10.7234043,3.78511639 Z" id="Shape" fill-rule="nonzero"></path>
                                        <path d="M11.9759624,1.55172414 L9.17297376,1.55172414 C9.04219321,1.55172414 8.93617021,1.43988166 8.93617021,1.30192272 L8.93617021,0.560146242 C8.93617021,0.422187306 9.04219321,0.310344828 9.17297376,0.310344828 L11.9759624,0.310344828 C12.106743,0.310344828 12.212766,0.422187306 12.212766,0.560146242 L12.212766,1.30192272 C12.212766,1.43991305 12.106743,1.55172414 11.9759624,1.55172414 Z" id="Path"></path>
                                    </g>
                                </g>
                            </g>
                        </g>
                    </g>
                </g>
            </g>
        </g>
    </g>
</svg>