<?xml version="1.0" encoding="UTF-8"?>
<svg width="12px" height="12px" viewBox="0 0 12 12" version="1.1" xmlns="http://www.w3.org/2000/svg" xmlns:xlink="http://www.w3.org/1999/xlink">
    <!-- Generator: Sketch 52.3 (67297) - http://www.bohemiancoding.com/sketch -->
    <title>LinkedIn</title>
    <desc>Created with Sketch.</desc>
    <g id="Page-1" stroke="none" stroke-width="1" fill="none" fill-rule="evenodd">
        <g id="1350px" transform="translate(-868.000000, -84.000000)" fill="#FFFFFF" fill-rule="nonzero">
            <g id="linkedin-logo" transform="translate(868.000000, 84.000000)">
                <path d="M12,7.51804393 L12,12 L9.37980381,12 L9.37980381,7.81821833 C9.37980381,6.76772068 9.00082069,6.05079712 8.05239653,6.05079712 C7.32839496,6.05079712 6.89754111,6.53395106 6.70799271,7.00132119 C6.63886964,7.16840418 6.62107728,7.40096183 6.62107728,7.63484419 L6.62107728,12 L4,12 C4,12 4.03530051,4.91743442 4,4.18362781 L6.62082148,4.18362781 L6.62082148,5.29156728 C6.6155065,5.29985379 6.60859988,5.30878856 6.60359755,5.31682139 L6.62082148,5.31682139 L6.62082148,5.29156728 C6.96902323,4.75973717 7.59087502,4 8.98277253,4 C10.7072395,3.99997181 12,5.11715609 12,7.51804393 Z M1.50913876,0 C0.59676673,0 0,0.647702019 0,1.49945224 C0,2.33264124 0.579501417,3 1.47374053,3 L1.49155532,3 C2.42159755,3 3,2.33276645 3,1.49945224 C2.98247441,0.647702019 2.42159755,0 1.50913876,0 Z M0,12 L3,12 L3,4 L0,4 L0,12 Z" id="LinkedIn"></path>
            </g>
        </g>
    </g>
</svg>