<?xml version="1.0" encoding="UTF-8"?>
<svg width="16px" height="11px" viewBox="0 0 16 11" version="1.1" xmlns="http://www.w3.org/2000/svg" xmlns:xlink="http://www.w3.org/1999/xlink">
    <!-- Generator: Sketch 52.3 (67297) - http://www.bohemiancoding.com/sketch -->
    <title>Shape</title>
    <desc>Created with Sketch.</desc>
    <g id="Page-1" stroke="none" stroke-width="1" fill="none" fill-rule="evenodd">
        <g id="1440px" transform="translate(-835.000000, -85.000000)" fill="#FFFFFF" fill-rule="nonzero">
            <path d="M847.379888,85.996063 C845.681564,85.996063 844.385475,87.0787402 843.849162,88.8110236 C843.044693,87.6417323 842.463687,86.3425197 842.061453,85 L840.22905,85 L840.22905,89.5905512 C840.22905,90.5 839.469274,91.2362205 838.530726,91.2362205 C837.592179,91.2362205 836.832402,90.5 836.832402,89.5905512 L836.832402,85 L835,85 L835,89.5905512 C835,91.4527559 836.564246,93.011811 838.530726,93.011811 C840.497207,93.011811 842.061453,91.496063 842.061453,89.5905512 L842.061453,88.8110236 C842.418994,89.5472441 842.865922,90.2401575 843.357542,90.8897638 L842.240223,96 L844.117318,96 L844.921788,92.3188976 C845.636872,92.7952756 846.486034,93.011811 847.379888,93.0551181 C849.391061,93.0551181 851,91.496063 851,89.5472441 C851,87.5984252 849.391061,85.996063 847.379888,85.996063 Z M847.379888,91.2795276 C846.664804,91.2795276 845.949721,90.976378 845.324022,90.5 L845.458101,89.8070866 L845.458101,89.7637795 C845.592179,89.0275591 846.039106,87.7716535 847.335196,87.7716535 C848.318436,87.7283465 849.167598,88.507874 849.167598,89.4606299 C849.212291,90.4133858 848.407821,91.2362205 847.424581,91.2362205 C847.424581,91.2795276 847.379888,91.2795276 847.379888,91.2795276 Z" id="Shape"></path>
        </g>
    </g>
</svg>