<?xml version="1.0" encoding="UTF-8"?>
<svg width="14px" height="14px" viewBox="0 0 14 14" version="1.1" xmlns="http://www.w3.org/2000/svg" xmlns:xlink="http://www.w3.org/1999/xlink">
    <!-- Generator: Sketch 52.3 (67297) - http://www.bohemiancoding.com/sketch -->
    <title>Shape</title>
    <desc>Created with Sketch.</desc>
    <g id="Page-1" stroke="none" stroke-width="1" fill="none" fill-rule="evenodd">
        <g id="1350px" transform="translate(-769.000000, -83.000000)" fill="#FFFFFF" fill-rule="nonzero">
            <g id="Content-#12" transform="translate(0.000000, -780.000000)">
                <g id="Content" transform="translate(133.000000, 858.000000)">
                    <g id="Header" transform="translate(630.000000, 0.000000)">
                        <g id="Social-Media">
                            <g id="Facebook">
                                <path d="M7.87209851,16.7669136 C7.88801259,16.781557 7.90536221,16.7946006 7.92390129,16.8057574 C9.24136547,18.2065121 11.0791134,19.0006149 13.0020508,18.9999996 C14.9249882,18.9993844 16.7622029,18.2041741 18.0788057,16.802599 C18.0961964,16.7924677 18.1126026,16.7807366 18.1278195,16.7676109 C18.1393038,16.751491 18.1493937,16.7343866 18.157925,16.7165029 C20.614025,14.0521157 20.614025,9.94862226 18.157925,7.28423508 L18.1565304,7.28353778 C18.1479992,7.26565406 18.1379093,7.24854967 18.1264249,7.23242971 C18.1104698,7.2175813 18.0929972,7.20445564 18.074294,7.19321679 C16.7574041,5.79361059 14.9210097,5 12.9993027,5 C11.0775958,5 9.24120141,5.79361059 7.92431145,7.19321679 C7.90560831,7.20441462 7.88813563,7.2175813 7.87218054,7.23242971 C7.86069615,7.24854967 7.8506063,7.26565406 7.84207504,7.28353778 C5.38597499,9.94792496 5.38597499,14.0514184 7.84207504,16.7158056 C7.85056528,16.7336893 7.86061412,16.7507937 7.87209851,16.7669136 Z M14.9078026,18.0014236 C15.4458051,17.3516621 15.8507528,16.6023916 16.0995538,15.7963116 L16.0995538,15.7952452 C16.5392417,16.0012361 16.9540742,16.2564893 17.3360941,16.5561647 C16.6465387,17.2156063 15.8162176,17.7097877 14.9078026,18.0014236 Z M17.8191356,16.0476271 C17.3533617,15.6739558 16.8422655,15.3605395 16.2980286,15.1148435 C16.5231226,14.2097057 16.6460465,13.2822133 16.6644626,12.3497168 L19.2807288,12.3497168 C19.207967,13.7083463 18.694902,15.0063926 17.8191356,16.0476271 Z M19.2807288,11.6496676 L16.6644626,11.6496676 C16.6460055,10.717171 16.5230816,9.78963763 16.2980286,8.88454091 C16.8422245,8.63904994 17.3533207,8.32587974 17.8191356,7.95245454 C18.694779,8.99348394 19.2078029,10.2912432 19.2807288,11.6496676 Z M17.3361351,7.44211223 C16.9541152,7.7417876 16.5392828,7.99708181 16.0995948,8.20303171 C15.8509168,7.39658258 15.4459692,6.64694297 14.9078437,5.99685333 C15.8162176,6.28853024 16.6465387,6.78271158 17.3361351,7.44211223 Z M13.3485511,5.74836806 C14.2063938,5.97306306 14.9651836,7.00457635 15.4433032,8.46484774 C14.7678572,8.69774628 14.0623467,8.83199723 13.3485511,8.86349883 L13.3485511,5.74836806 Z M13.3485511,9.56391719 C14.1273156,9.5347536 14.8978358,9.39332455 15.6361588,9.14389587 C15.8347157,9.96502935 15.9448837,10.805072 15.9648173,11.6496676 L13.3485511,11.6496676 L13.3485511,9.56391719 Z M13.3485511,12.3497168 L15.9648173,12.3497168 C15.9448427,13.1940663 15.8346746,14.0338628 15.6361588,14.8547912 C14.8977948,14.6056086 14.1273156,14.4643847 13.3485511,14.4354672 L13.3485511,12.3497168 Z M13.3485511,15.1358445 C14.0623467,15.1674692 14.7678572,15.3018432 15.4433032,15.5348648 C14.9651836,16.9951362 14.2063938,18.0266495 13.3485511,18.2513445 L13.3485511,15.1358445 Z M8.66099381,16.5551802 C9.04313676,16.2562432 9.4579692,16.0016463 9.89753408,15.7963527 L9.89753408,15.7952862 C10.1463351,16.6013662 10.5512828,17.3506366 11.0892852,18.0003981 C10.1809113,17.7087622 9.35059019,17.2145809 8.66099381,16.5551802 Z M12.6485778,18.2510163 C11.7907351,18.0263213 11.0319453,16.994808 10.5538257,15.5345366 C11.2292717,15.3016381 11.9347822,15.1673871 12.6485778,15.1358855 L12.6485778,18.2510163 Z M12.6485778,14.4354672 C11.8698133,14.4646308 11.0993341,14.6060598 10.3609701,14.8554885 C10.1624132,14.034314 10.0522452,13.1943124 10.0323116,12.3497168 L12.6485778,12.3497168 L12.6485778,14.4354672 Z M12.6485778,11.6496676 L10.0323116,11.6496676 C10.0522862,10.8053181 10.1624543,9.96552156 10.3609701,9.14459317 C11.0993341,9.39377574 11.8698133,9.53499971 12.6485778,9.56391719 L12.6485778,11.6496676 Z M12.6485778,5.7479989 L12.6485778,8.86349883 C11.9347822,8.83187418 11.2292717,8.69750017 10.5538257,8.46447858 C11.0319043,7.00424821 11.7906941,5.97273492 12.6485778,5.7479989 Z M11.0893263,5.99582789 C10.5510777,6.64620465 10.14613,7.39621342 9.8975751,8.20303171 L9.8975751,8.20196525 C9.45788717,7.99597433 9.04305473,7.74072114 8.66103483,7.44100475 C9.35059019,6.78164512 10.1809113,6.28746378 11.0893263,5.99582789 Z M8.17799334,7.95171622 C8.64376723,8.32538753 9.15486343,8.63880383 9.69910029,8.8844999 C9.47400632,9.78963763 9.35108237,10.71713 9.33266634,11.6496266 L6.71640011,11.6496266 C6.7891619,10.2909971 7.30222686,8.99295071 8.17799334,7.95171622 Z M9.33266634,12.3497168 C9.35112339,13.2822133 9.47404734,14.2097467 9.69910029,15.1148435 C9.15490445,15.3603344 8.64380825,15.6735046 8.17799334,16.0469298 C7.3023499,15.0059004 6.78932597,13.7081002 6.71640011,12.3496758 L9.33266634,12.3496758 L9.33266634,12.3497168 Z" id="Shape"></path>
                            </g>
                        </g>
                    </g>
                </g>
            </g>
        </g>
    </g>
</svg>