<?xml version="1.0" encoding="UTF-8"?>
<svg width="71px" height="39px" viewBox="0 0 71 39" version="1.1" xmlns="http://www.w3.org/2000/svg" xmlns:xlink="http://www.w3.org/1999/xlink">
    <!-- Generator: Sketch 52.3 (67297) - http://www.bohemiancoding.com/sketch -->
    <title>Group</title>
    <desc>Created with Sketch.</desc>
    <g id="Page-1" stroke="none" stroke-width="1" fill="none" fill-rule="evenodd">
        <g id="1350px" transform="translate(-150.000000, -71.000000)" fill="#000000">
            <g id="Group" transform="translate(150.000000, 71.000000)">
                <g id="LOGO" transform="translate(1.000000, 0.000000)">
                    <g id="arro1" transform="translate(65.373016, 27.883234) scale(-1, 1) translate(-65.373016, -27.883234) translate(60.873016, 19.383234)">
                        <path d="M1.36801006,8.14165997 L8.3078407,15.3797249 C8.47757606,15.5567546 8.4716629,15.8378631 8.29463327,16.0075985 C8.28957771,16.0124458 8.28440817,16.0171727 8.27912901,16.0217755 C8.08249452,16.1932144 7.78599835,16.1804664 7.60480462,15.9927824 L0.0378275252,8.15476269 L0.0410804553,8.15171942 L7.59887858,0.295625418 C7.78241527,0.104858393 8.08427486,0.0943224144 8.28066561,0.271828614 C8.46933516,0.442356076 8.48404223,0.73354279 8.31351477,0.922212342 C8.3103087,0.925759495 8.30704758,0.929256499 8.30373259,0.93270208 L1.36801006,8.14165997 Z" id="Combined-Shape"></path>
                    </g>
                    <path d="M11.3669114,26.9386218 L11.3669114,1.06130443 C11.3669114,0.750776623 11.6338938,0.492003449 11.9542726,0.492003449 C12.328048,0.492003449 12.5950303,0.750776623 12.5950303,1.06130443 L12.5950303,26.9386218 C12.5950303,29.3710896 10.5659642,31.2342565 8.10972629,31.2342565 L1.32837373,31.2342565 C1.00799487,31.2342565 0.741012489,30.9754833 0.741012489,30.6649555 C0.741012489,30.3026731 1.00799487,30.0438999 1.32837373,30.0438999 L8.10972629,30.0438999 C9.92520651,30.0438999 11.3669114,28.750034 11.3669114,26.9386218 Z M0.794408966,38.6351692 C0.420633628,38.6351692 0.153651244,38.3763961 0.153651244,38.0658683 C0.153651244,37.7035858 0.420633628,37.4448126 0.794408966,37.4448126 L8.3233122,37.4448126 C14.3037176,37.4448126 19.0026076,32.6833863 19.0026076,26.9386218 L19.0026076,1.06130443 C19.0026076,0.750776623 19.26959,0.492003449 19.5899688,0.492003449 C19.9637442,0.492003449 20.2307265,0.750776623 20.2307265,1.06130443 L20.2307265,26.9386218 C20.2307265,33.3561965 14.9444753,38.6351692 8.3233122,38.6351692 L0.794408966,38.6351692 Z M56.2199519,35.4263819 L56.2199519,19.537709 C56.2199519,19.2271812 56.5403308,18.968408 56.8607097,18.968408 C57.1810885,18.968408 57.4480709,19.2271812 57.4480709,19.537709 L57.4480709,35.7369097 C57.5014674,35.9439282 57.3412779,36.1509468 57.1810885,36.3062107 C54.0306964,38.0141136 50.5599254,38.9456971 46.9823614,38.9456971 C37.7447709,38.9456971 31.6041761,34.132516 28.7741628,27.9219599 C26.4781143,22.9535149 26.3713214,16.9499773 28.5071804,11.8262685 C31.1770043,5.51220302 37.2642027,0.492003449 46.9823614,0.181475641 C50.1327536,0.0779663713 53.1229563,0.595512719 56.113159,1.52709614 C56.4335378,1.63060541 56.6471237,1.99288786 56.5403308,2.30341566 C56.3801414,2.61394347 56.0597625,2.76920738 55.7393836,2.66569811 C52.9093704,1.78586932 50.0259606,1.3200776 47.0357579,1.42358687 C37.8515639,1.68236005 32.1915374,6.34027717 29.6285065,12.2920602 C27.6528368,17.1052412 27.7062333,22.7464964 29.8954888,27.4561681 C32.5653127,33.2526872 38.3321322,37.7035858 46.9823614,37.7035858 C50.18615,37.7035858 53.3899387,36.9790209 56.2199519,35.4263819 Z M55.2054189,9.03151818 C55.5257977,9.18678208 55.6859872,9.54906453 55.5257977,9.8078377 C55.4190048,10.1183655 55.0452294,10.2736294 54.7248506,10.1183655 C52.2686126,9.08327281 49.6521853,8.77274501 47.0357579,8.92800891 C41.8029032,9.08327281 38.5457181,11.8262685 37.1040132,15.293829 C35.9292907,18.0885793 35.9826872,21.4526305 37.2642027,24.1956262 C38.8127005,27.611432 42.0164891,30.1991638 46.9823614,30.1991638 C47.4629297,30.1991638 47.943498,30.1991638 48.4774628,30.0956545 L48.4774628,19.537709 C48.4774628,19.2271812 48.7444452,18.968408 49.1182205,18.968408 C49.4385994,18.968408 49.7055818,19.2271812 49.7055818,19.537709 L49.7055818,30.6649555 C49.7055818,30.9754833 49.4919959,31.2342565 49.171617,31.2342565 C48.4774628,31.3895204 47.7299121,31.441275 46.9823614,31.441275 C41.4825243,31.441275 37.7981674,28.4912608 36.1428766,24.6614179 C34.7545682,21.6078944 34.7011718,17.9333154 35.9292907,14.8280373 C37.531185,10.9464397 41.2155419,7.89291622 46.9823614,7.68589768 C49.7589782,7.58238841 52.642388,7.89291622 55.2054189,9.03151818 Z" id="JG"></path>
                </g>
                <path d="M1.42686423,8.99792399 L8.86894037,16.2329353 C9.03976285,16.3990049 9.04361582,16.6721099 8.87754623,16.8429323 C8.8658079,16.8550066 8.85337261,16.8663832 8.84030423,16.8770037 C8.62545207,17.0516104 8.31405343,17.0383019 8.11488216,16.8460006 L2.95109714e-10,9.01102499 L0.00349291966,9.00797901 L8.10888332,1.15459551 C8.31050348,0.959257736 8.62726211,0.948252907 8.84195264,1.12912722 C9.03062948,1.2880853 9.05472129,1.56989908 8.89576321,1.75857592 C8.88606106,1.77009198 8.87578282,1.78111011 8.86496785,1.79158808 L1.42686423,8.99792399 Z" id="Combined-Shape"></path>
            </g>
        </g>
    </g>
</svg>